<svg width="40" height="40" viewBox="0 0 40 40" fill="none" xmlns="http://www.w3.org/2000/svg">
<path d="M7.71905 32.5022C8.46467 33.2489 9.35049 33.8409 10.3256 34.2442C11.3007 34.6475 12.3459 34.8541 13.4011 34.8522C14.4566 34.8541 15.502 34.6474 16.4774 34.2441C17.4527 33.8409 18.3389 33.2489 19.0848 32.5022L23.6305 27.955L21.3577 25.6821L16.812 30.2294C15.9062 31.1312 14.6801 31.6374 13.4019 31.6374C12.1238 31.6374 10.8977 31.1312 9.99188 30.2294C9.08935 29.324 8.58254 28.0977 8.58254 26.8193C8.58254 25.5409 9.08935 24.3147 9.99188 23.4093L14.5392 18.8636L12.2663 16.5908L7.71905 21.1365C6.21423 22.6449 5.36914 24.6886 5.36914 26.8193C5.36914 28.9501 6.21423 30.9938 7.71905 32.5022ZM32.7234 18.8636C34.2275 17.3548 35.072 15.3112 35.072 13.1807C35.072 11.0503 34.2275 9.00673 32.7234 7.49786C31.215 5.99304 29.1712 5.14795 27.0405 5.14795C24.9098 5.14795 22.8661 5.99304 21.3577 7.49786L16.812 12.0451L19.0848 14.318L23.6305 9.77069C24.5363 8.86894 25.7624 8.36268 27.0405 8.36268C28.3187 8.36268 29.5448 8.86894 30.4506 9.77069C31.3531 10.6761 31.8599 11.9023 31.8599 13.1807C31.8599 14.4591 31.3531 15.6854 30.4506 16.5908L25.9033 21.1365L28.1762 23.4093L32.7234 18.8636Z" fill="#888888"/>
<path d="M14.5371 27.9563L12.2627 25.6834L25.9045 12.0432L28.1773 14.3177L14.5371 27.9563Z" fill="#888888"/>
</svg>
